# xmcd CD database file
#
# Track frame offsets:
#	182
#	11150
#	24262
#	39167
#	50690
#	61170
#	76125
#	88115
#	99327
#	111362
#	122642
#	135762
#	148292
#	161187
#	173432
#	184112
#
# Disc length: 2593 seconds
#
# Revision: 2
# Processed by: cddbd v1.5PL3 Copyright (c) Steve Scherf et al.
# Submitted via: CDex 1.50
#
DISCID=c70a1f10
DTITLE=Elmore James - Dust My Broom
DYEAR=1900
DGENRE=Blues
TTITLE0=Coming Home
TTITLE1=Dust My Broom
TTITLE2=Everyday I Have the Blues
TTITLE3=Fina Little Mama
TTITLE4=I Done Somebody Wrong
TTITLE5=It Hurts Me Too
TTITLE6=Pickin' The Blues
TTITLE7=Look on Yonder Wall
TTITLE8=Mean Mistreating Mama
TTITLE9=Rollin' and Tumblin'
TTITLE10=Standing at the Crossroads
TTITLE11=The Sky Is Crying
TTITLE12=Anna Lee
TTITLE13=Got To Move
TTITLE14=One Way Out
TTITLE15=Sunnyland Train
EXTD=
EXTT0=
EXTT1=
EXTT2=
EXTT3=
EXTT4=
EXTT5=
EXTT6=
EXTT7=
EXTT8=
EXTT9=
EXTT10=
EXTT11=
EXTT12=
EXTT13=
EXTT14=
EXTT15=
PLAYORDER=
